# xmcd
#
# Track frame offsets:
#	150
#	11249
#	22801
#	29273
#	40109
#	49782
#	60923
#	69668
#	81579
#	91588
#	101093
#	113380
#	124379
#	135210
#	145789
#
# Disc length: 2094 seconds
#
# Revision: 1
# Processed by: cddbd v1.5.2PL0 Copyright (c) Steve Scherf et al.
# Submitted via: audiograbber 1.83.01
#
DISCID=b9082c0f
DTITLE=Clarence 'Frogman' Henry - The Best Of... [CD2]
DYEAR=2016
DGENRE=Blues
TTITLE0=You Always Hurt The One You Love
TTITLE1=Standing In The Need Of Love
TTITLE2=Why Can't You
TTITLE3=Come On And Dance
TTITLE4=I Wish I Could Say The Same
TTITLE5=Lonely Tramp
TTITLE6=I Want To Be A Movie Star
TTITLE7=Live It Right
TTITLE8=I Love You Yes I Do
TTITLE9=Troubles Troubles
TTITLE10=Your Picture
TTITLE11=Just My Baby And Me
TTITLE12=I Found A Home
TTITLE13=Baby Baby Please
TTITLE14=I'm In Love
EXTD=
EXTT0=
EXTT1=
EXTT2=
EXTT3=
EXTT4=
EXTT5=
EXTT6=
EXTT7=
EXTT8=
EXTT9=
EXTT10=
EXTT11=
EXTT12=
EXTT13=
EXTT14=
PLAYORDER=
